<svg width="19" height="20" viewBox="0 0 19 20" fill="none" xmlns="http://www.w3.org/2000/svg">
<mask id="path-1-outside-1_1828_9264" maskUnits="userSpaceOnUse" x="0.5" y="0.5" width="18" height="19" fill="black">
<rect fill="white" x="0.5" y="0.5" width="18" height="19"/>
<path d="M9.50327 1.5C5.08288 1.5 1.5 4.82928 1.5 8.93241C1.5 11.9666 2.76608 13.4159 4.49769 14.7362V18.2951C4.49739 18.333 4.50765 18.3703 4.52733 18.4026C4.54701 18.435 4.57531 18.4612 4.60904 18.4783C4.64276 18.4954 4.68056 18.5026 4.71817 18.4992C4.75577 18.4958 4.79168 18.4819 4.82182 18.459L7.85649 16.1943L7.92175 16.2227C8.44059 16.3186 8.96702 16.3669 9.49456 16.367C13.9149 16.367 17.5 13.0355 17.5 8.93459C17.5 4.83365 13.9149 1.50219 9.49456 1.50219M6.81231 10.8255C7.18173 10.8376 7.54473 10.7264 7.84462 10.5093C8.14452 10.2921 8.36441 9.98133 8.46996 9.62537H9.62944C9.51763 10.2908 9.16935 10.8929 8.64927 11.3198C8.12919 11.7467 7.47262 11.9696 6.80144 11.9469C6.00582 11.9469 5.24279 11.6293 4.68021 11.064C4.11762 10.4987 3.80157 9.7319 3.80157 8.93241C3.80157 8.13291 4.11762 7.36617 4.68021 6.80084C5.24279 6.23551 6.00582 5.91791 6.80144 5.91791C7.47879 5.89771 8.14013 6.127 8.66098 6.56262C9.18183 6.99824 9.52626 7.61015 9.62944 8.28317H8.47213C8.38115 7.91214 8.16534 7.58413 7.86127 7.35466C7.5572 7.1252 7.18355 7.00839 6.8036 7.02403C6.55207 7.01337 6.30111 7.05556 6.06672 7.1479C5.83234 7.24024 5.61971 7.3807 5.44242 7.5603C5.26512 7.7399 5.12705 7.9547 5.03705 8.19096C4.94705 8.42722 4.90709 8.67975 4.91972 8.93241C4.9162 9.18199 4.96253 9.42974 5.05596 9.66102C5.14939 9.89229 5.28802 10.1024 5.46366 10.2789C5.6393 10.4554 5.84838 10.5947 6.07853 10.6886C6.30868 10.7825 6.55523 10.829 6.8036 10.8255M14.4501 11.8332H13.3863V9.42863C13.3863 8.87339 13.0644 8.5739 12.5706 8.5739C12.018 8.5739 11.6634 8.91492 11.6634 9.60132V11.8398H10.5997V5.93759H11.6634V8.15201C11.9201 7.7629 12.3313 7.57271 12.8925 7.57271C13.0993 7.56486 13.3054 7.60135 13.4971 7.67974C13.6887 7.75814 13.8616 7.87666 14.0041 8.0274C14.1566 8.19751 14.2736 8.39655 14.3483 8.61279C14.423 8.82903 14.4539 9.05811 14.4392 9.28654L14.4501 11.8332Z"/>
</mask>
<path d="M9.50327 2.5C10.0556 2.5 10.5033 2.05228 10.5033 1.5C10.5033 0.947715 10.0556 0.5 9.50327 0.5V2.5ZM4.49769 14.7362H5.49769V14.2412L5.10403 13.941L4.49769 14.7362ZM4.49769 18.2951L5.49769 18.3031V18.2951H4.49769ZM4.82182 18.459L4.22372 17.6576L4.21777 17.6621L4.82182 18.459ZM7.85649 16.1943L8.25576 15.2775L7.72359 15.0457L7.25841 15.3929L7.85649 16.1943ZM7.92175 16.2227L7.52248 17.1396L7.62743 17.1853L7.73999 17.2061L7.92175 16.2227ZM9.49456 16.367L9.4944 17.367H9.49456V16.367ZM9.49456 0.502186C8.94227 0.502186 8.49456 0.949902 8.49456 1.50219C8.49456 2.05447 8.94227 2.50219 9.49456 2.50219V0.502186ZM6.845 9.82602C6.29301 9.80797 5.8309 10.2408 5.81284 10.7928C5.79479 11.3448 6.22763 11.8069 6.77962 11.825L6.845 9.82602ZM8.46996 9.62537V8.62537H7.72344L7.51122 9.34109L8.46996 9.62537ZM9.62944 9.62537L10.6156 9.79108L10.8115 8.62537H9.62944V9.62537ZM6.80144 11.9469L6.83517 10.9475L6.81831 10.9469H6.80144V11.9469ZM6.80144 5.91791V6.91791H6.81635L6.83125 6.91747L6.80144 5.91791ZM9.62944 8.28317V9.28317H10.7944L10.6179 8.13163L9.62944 8.28317ZM8.47213 8.28317L7.50091 8.52134L7.68773 9.28317H8.47213V8.28317ZM6.8036 7.02403L6.76127 8.02313L6.80299 8.0249L6.84472 8.02318L6.8036 7.02403ZM4.91972 8.93241L5.91962 8.94649L5.92007 8.91447L5.91847 8.88248L4.91972 8.93241ZM6.81782 11.8254C7.37005 11.8175 7.81135 11.3635 7.8035 10.8113C7.79565 10.259 7.34161 9.81773 6.78938 9.82559L6.81782 11.8254ZM14.4501 11.8332V12.8332H15.4544L15.4501 11.829L14.4501 11.8332ZM13.3863 11.8332H12.3863V12.8332H13.3863V11.8332ZM11.6634 11.8398V12.8398H12.6634V11.8398H11.6634ZM10.5997 11.8398H9.59966V12.8398H10.5997V11.8398ZM10.5997 5.93759V4.93759H9.59966V5.93759H10.5997ZM11.6634 5.93759H12.6634V4.93759H11.6634V5.93759ZM11.6634 8.15201H10.6634V11.4838L12.4981 8.70267L11.6634 8.15201ZM12.8925 7.57271V8.57271H12.9115L12.9305 8.57199L12.8925 7.57271ZM14.0041 8.0274L14.7489 7.36006L14.7399 7.35007L14.7307 7.34033L14.0041 8.0274ZM14.4392 9.28654L13.4413 9.22224L13.4391 9.25649L13.4392 9.29081L14.4392 9.28654ZM9.50327 0.5C4.60139 0.5 0.5 4.20876 0.5 8.93241H2.5C2.5 5.4498 5.56436 2.5 9.50327 2.5V0.5ZM0.5 8.93241C0.5 10.5978 0.850121 11.8997 1.48741 12.9838C2.11655 14.054 2.98432 14.8398 3.89135 15.5315L5.10403 13.941C4.27945 13.3123 3.64838 12.7133 3.21157 11.9702C2.78292 11.2411 2.5 10.3012 2.5 8.93241H0.5ZM3.49769 14.7362V18.2951H5.49769V14.7362H3.49769ZM3.49773 18.287C3.49592 18.5105 3.55637 18.7304 3.67273 18.9219L5.38192 17.8834C5.45893 18.0101 5.49885 18.1555 5.49766 18.3031L3.49773 18.287ZM3.67273 18.9219C3.78912 19.1135 3.95693 19.2691 4.15768 19.3706L5.0604 17.586C5.19369 17.6534 5.30489 17.7566 5.38192 17.8834L3.67273 18.9219ZM4.15768 19.3706C4.35851 19.4722 4.58396 19.5154 4.80843 19.4951L4.6279 17.5033C4.77716 17.4897 4.92702 17.5185 5.0604 17.586L4.15768 19.3706ZM4.80843 19.4951C5.03286 19.4748 5.24672 19.3917 5.42587 19.256L4.21777 17.6621C4.33663 17.572 4.47868 17.5168 4.6279 17.5033L4.80843 19.4951ZM5.41991 19.2604L8.45458 16.9957L7.25841 15.3929L4.22374 17.6576L5.41991 19.2604ZM7.45722 17.1111L7.52248 17.1396L8.32102 15.3059L8.25576 15.2775L7.45722 17.1111ZM7.73999 17.2061C8.31872 17.313 8.90594 17.3669 9.4944 17.367L9.49471 15.367C9.0281 15.3669 8.56245 15.3242 8.10352 15.2394L7.73999 17.2061ZM9.49456 17.367C14.3963 17.367 18.5 13.6562 18.5 8.93459H16.5C16.5 12.4149 13.4336 15.367 9.49456 15.367V17.367ZM18.5 8.93459C18.5 4.21298 14.3963 0.502186 9.49456 0.502186V2.50219C13.4336 2.50219 16.5 5.45433 16.5 8.93459H18.5ZM6.77962 11.825C7.37112 11.8443 7.95184 11.6662 8.43105 11.3193L7.25819 9.69925C7.13763 9.78654 6.99235 9.83084 6.845 9.82602L6.77962 11.825ZM8.43105 11.3193C8.91018 10.9724 9.26062 10.4765 9.4287 9.90965L7.51122 9.34109C7.46819 9.48618 7.37885 9.6119 7.25819 9.69925L8.43105 11.3193ZM8.46996 10.6254H9.62944V8.62537H8.46996V10.6254ZM8.64327 9.45966C8.57136 9.88757 8.34756 10.2737 8.01477 10.5469L9.28377 12.0927C9.99114 11.512 10.4639 10.694 10.6156 9.79108L8.64327 9.45966ZM8.01477 10.5469C7.6821 10.82 7.26296 10.9619 6.83517 10.9475L6.76771 12.9463C7.68228 12.9772 8.57627 12.6735 9.28377 12.0927L8.01477 10.5469ZM6.80144 10.9469C6.27261 10.9469 5.76445 10.7359 5.38903 10.3586L3.97138 11.7694C4.72112 12.5228 5.73903 12.9469 6.80144 12.9469V10.9469ZM5.38903 10.3586C5.01344 9.98118 4.80157 9.46825 4.80157 8.93241H2.80157C2.80157 9.99555 3.2218 11.0161 3.97138 11.7694L5.38903 10.3586ZM4.80157 8.93241C4.80157 8.39657 5.01344 7.88364 5.38903 7.50622L3.97138 6.09545C3.2218 6.84869 2.80157 7.86926 2.80157 8.93241H4.80157ZM5.38903 7.50622C5.76446 7.12897 6.27261 6.91791 6.80144 6.91791V4.91791C5.73903 4.91791 4.72112 5.34205 3.97138 6.09545L5.38903 7.50622ZM6.83125 6.91747C7.26336 6.90458 7.68595 7.05078 8.01942 7.32969L9.30254 5.79554C8.59432 5.20321 7.69422 4.89084 6.77162 4.91836L6.83125 6.91747ZM8.01942 7.32969C8.35303 7.60871 8.57458 8.00151 8.64099 8.4347L10.6179 8.13163C10.4779 7.21879 10.0106 6.38777 9.30254 5.79554L8.01942 7.32969ZM9.62944 7.28317H8.47213V9.28317H9.62944V7.28317ZM9.44336 8.04499C9.29771 7.45109 8.95203 6.925 8.46364 6.55644L7.25891 8.15288C7.37866 8.24325 7.46458 8.3732 7.50091 8.52134L9.44336 8.04499ZM8.46364 6.55644C7.97515 6.18781 7.37416 5.9997 6.76248 6.02488L6.84472 8.02318C6.99294 8.01708 7.13926 8.06259 7.25891 8.15288L8.46364 6.55644ZM6.84593 6.02493C6.45471 6.00835 6.06447 6.07398 5.70017 6.2175L6.43328 8.0783C6.53774 8.03714 6.64943 8.01839 6.76127 8.02313L6.84593 6.02493ZM5.70017 6.2175C5.33589 6.36102 5.00577 6.57919 4.73076 6.85778L6.15407 8.26283C6.23366 8.18221 6.3288 8.11946 6.43328 8.0783L5.70017 6.2175ZM4.73076 6.85778C4.45576 7.13635 4.24189 7.46921 4.10256 7.83497L5.97154 8.54695C6.01221 8.44018 6.07448 8.34346 6.15407 8.26283L4.73076 6.85778ZM4.10256 7.83497C3.96324 8.20071 3.90143 8.59147 3.92097 8.98233L5.91847 8.88248C5.91275 8.76803 5.93087 8.65373 5.97154 8.54695L4.10256 7.83497ZM3.91982 8.91833C3.91443 9.30091 3.98544 9.6808 4.12876 10.0356L5.98316 9.28645C5.93963 9.17869 5.91798 9.06307 5.91962 8.94649L3.91982 8.91833ZM4.12876 10.0356C4.27208 10.3904 4.48488 10.713 4.75483 10.9843L6.17248 9.5735C6.09116 9.49178 6.02669 9.39422 5.98316 9.28645L4.12876 10.0356ZM4.75483 10.9843C5.02479 11.2555 5.34641 11.4699 5.70082 11.6145L6.45624 9.76266C6.35034 9.71946 6.25381 9.65523 6.17248 9.5735L4.75483 10.9843ZM5.70082 11.6145C6.05523 11.7591 6.43507 11.8308 6.81782 11.8254L6.78938 9.82559C6.67539 9.82721 6.56213 9.80585 6.45624 9.76266L5.70082 11.6145ZM14.4501 10.8332H13.3863V12.8332H14.4501V10.8332ZM14.3863 11.8332V9.42863H12.3863V11.8332H14.3863ZM14.3863 9.42863C14.3863 8.95858 14.2465 8.46715 13.8758 8.09105C13.5044 7.71425 13.02 7.5739 12.5706 7.5739V9.5739C12.5938 9.5739 12.5871 9.57747 12.5602 9.56757C12.531 9.55679 12.4901 9.53425 12.4515 9.49505C12.4129 9.45591 12.3939 9.41777 12.3865 9.39706C12.38 9.37877 12.3863 9.38542 12.3863 9.42863H14.3863ZM12.5706 7.5739C12.0848 7.5739 11.5643 7.72971 11.1746 8.15235C10.795 8.56401 10.6634 9.09506 10.6634 9.60132H12.6634C12.6634 9.51395 12.6749 9.47133 12.6782 9.46107C12.6807 9.45341 12.6744 9.47621 12.645 9.50807C12.6311 9.52317 12.615 9.5369 12.5979 9.54837C12.581 9.55974 12.5659 9.56694 12.5549 9.57119C12.5331 9.57955 12.5343 9.5739 12.5706 9.5739V7.5739ZM10.6634 9.60132V11.8398H12.6634V9.60132H10.6634ZM11.6634 10.8398H10.5997V12.8398H11.6634V10.8398ZM11.5997 11.8398V5.93759H9.59966V11.8398H11.5997ZM10.5997 6.93759H11.6634V4.93759H10.5997V6.93759ZM10.6634 5.93759V8.15201H12.6634V5.93759H10.6634ZM12.4981 8.70267C12.5262 8.66022 12.5796 8.57271 12.8925 8.57271V6.57271C12.083 6.57271 11.3141 6.86557 10.8287 7.60134L12.4981 8.70267ZM12.9305 8.57199C12.9947 8.56956 13.0587 8.58086 13.1185 8.60531L13.8757 6.75418C13.5521 6.62183 13.204 6.56016 12.8546 6.57343L12.9305 8.57199ZM13.1185 8.60531C13.1783 8.62977 13.2326 8.66688 13.2776 8.71448L14.7307 7.34033C14.4906 7.08643 14.1992 6.88652 13.8757 6.75418L13.1185 8.60531ZM13.2594 8.69475C13.3229 8.76557 13.3718 8.84871 13.4031 8.93938L15.2935 8.2862C15.1754 7.94438 14.9903 7.62945 14.7489 7.36006L13.2594 8.69475ZM13.4031 8.93938C13.4345 9.03005 13.4475 9.12625 13.4413 9.22224L15.4372 9.35084C15.4604 8.98998 15.4116 8.62801 15.2935 8.2862L13.4031 8.93938ZM13.4392 9.29081L13.4501 11.8375L15.4501 11.829L15.4392 9.28227L13.4392 9.29081Z" fill="#9C9C9C" mask="url(#path-1-outside-1_1828_9264)"/>
</svg>
